<mxfile host="Electron" agent="Mozilla/5.0 (X11; Linux x86_64) AppleWebKit/537.36 (KHTML, like Gecko) draw.io/28.2.5 Chrome/138.0.7204.251 Electron/37.6.1 Safari/537.36" version="28.2.5">
  <diagram name="第 1 页" id="A2wYnKDMZFF023bxGnZ8">
    <mxGraphModel dx="599" dy="788" grid="1" gridSize="10" guides="1" tooltips="1" connect="1" arrows="1" fold="1" page="1" pageScale="1" pageWidth="827" pageHeight="1169" math="0" shadow="0">
      <root>
        <mxCell id="0" />
        <mxCell id="1" parent="0" />
        <mxCell id="lc5mf7nCTQjh2SExQ85K-13" value="" style="rounded=0;whiteSpace=wrap;html=1;" parent="1" vertex="1">
          <mxGeometry x="830" y="150" width="1400" height="570" as="geometry" />
        </mxCell>
        <mxCell id="1i7iyDztXm2SfSE6uJK3-13" value="&lt;div&gt;@SpringBootApplication&lt;/div&gt;" style="html=1;whiteSpace=wrap;fontSize=20;verticalAlign=middle;align=center;fillColor=#ffe6cc;strokeColor=#d79b00;" parent="1" vertex="1">
          <mxGeometry x="1328" y="610" width="276" height="51" as="geometry" />
        </mxCell>
        <mxCell id="1i7iyDztXm2SfSE6uJK3-25" value="@SpringBootConfiguration" style="html=1;whiteSpace=wrap;fontSize=20;fillColor=#ffe6cc;strokeColor=#d79b00;" parent="1" vertex="1">
          <mxGeometry x="892" y="500" width="286.75" height="50" as="geometry" />
        </mxCell>
        <mxCell id="lc5mf7nCTQjh2SExQ85K-7" value="Extends" style="endArrow=block;endSize=16;endFill=0;html=1;rounded=0;exitX=0.5;exitY=0;exitDx=0;exitDy=0;entryX=0.5;entryY=1;entryDx=0;entryDy=0;" parent="1" source="1i7iyDztXm2SfSE6uJK3-13" target="1i7iyDztXm2SfSE6uJK3-25" edge="1">
          <mxGeometry width="160" relative="1" as="geometry">
            <mxPoint x="1112" y="680" as="sourcePoint" />
            <mxPoint x="1272" y="680" as="targetPoint" />
          </mxGeometry>
        </mxCell>
        <mxCell id="lc5mf7nCTQjh2SExQ85K-15" value="spring&lt;div&gt;&lt;br&gt;&lt;/div&gt;" style="shape=module;align=left;spacingLeft=20;align=center;verticalAlign=top;whiteSpace=wrap;html=1;fontSize=20;fillColor=#ffcc99;strokeColor=#36393d;" parent="1" vertex="1">
          <mxGeometry x="1858" y="180" width="160" height="50" as="geometry" />
        </mxCell>
        <mxCell id="mEVcy1A5f8fxIJjsYzMS-37" value="springboot&lt;div&gt;&lt;br&gt;&lt;/div&gt;" style="shape=module;align=left;spacingLeft=20;align=center;verticalAlign=top;whiteSpace=wrap;html=1;fontSize=20;fillColor=#ffe6cc;strokeColor=#d79b00;" parent="1" vertex="1">
          <mxGeometry x="2040" y="180" width="160" height="50" as="geometry" />
        </mxCell>
        <mxCell id="5eiVQQ08Vi99bNfQlzm1-1" value="@EnableAutoConfiguration" style="html=1;whiteSpace=wrap;fontSize=20;fillColor=#ffe6cc;strokeColor=#d79b00;" parent="1" vertex="1">
          <mxGeometry x="1322.63" y="500" width="286.75" height="50" as="geometry" />
        </mxCell>
        <mxCell id="5eiVQQ08Vi99bNfQlzm1-2" value="Extends" style="endArrow=block;endSize=16;endFill=0;html=1;rounded=0;exitX=0.5;exitY=0;exitDx=0;exitDy=0;entryX=0.5;entryY=1;entryDx=0;entryDy=0;" parent="1" source="1i7iyDztXm2SfSE6uJK3-13" target="5eiVQQ08Vi99bNfQlzm1-1" edge="1">
          <mxGeometry width="160" relative="1" as="geometry">
            <mxPoint x="1388" y="590" as="sourcePoint" />
            <mxPoint x="1548" y="590" as="targetPoint" />
          </mxGeometry>
        </mxCell>
        <mxCell id="5eiVQQ08Vi99bNfQlzm1-3" value="@ComponentScan" style="html=1;whiteSpace=wrap;fontSize=20;verticalAlign=middle;align=center;fontStyle=0;fillColor=#ffcc99;strokeColor=#36393d;" parent="1" vertex="1">
          <mxGeometry x="1750" y="499" width="290" height="51" as="geometry" />
        </mxCell>
        <mxCell id="5eiVQQ08Vi99bNfQlzm1-4" value="Extends" style="endArrow=block;endSize=16;endFill=0;html=1;rounded=0;entryX=0.5;entryY=1;entryDx=0;entryDy=0;" parent="1" target="5eiVQQ08Vi99bNfQlzm1-3" edge="1">
          <mxGeometry width="160" relative="1" as="geometry">
            <mxPoint x="1468" y="610" as="sourcePoint" />
            <mxPoint x="1818" y="600" as="targetPoint" />
          </mxGeometry>
        </mxCell>
        <mxCell id="5eiVQQ08Vi99bNfQlzm1-5" value="@Configuration" style="html=1;whiteSpace=wrap;fontSize=20;verticalAlign=middle;align=center;fontStyle=0;fillColor=#ffcc99;strokeColor=#36393d;" parent="1" vertex="1">
          <mxGeometry x="892" y="345" width="290" height="51" as="geometry" />
        </mxCell>
        <mxCell id="5eiVQQ08Vi99bNfQlzm1-6" value="Extends" style="endArrow=block;endSize=16;endFill=0;html=1;rounded=0;exitX=0.5;exitY=0;exitDx=0;exitDy=0;" parent="1" source="1i7iyDztXm2SfSE6uJK3-25" target="5eiVQQ08Vi99bNfQlzm1-5" edge="1">
          <mxGeometry width="160" relative="1" as="geometry">
            <mxPoint x="1188" y="460" as="sourcePoint" />
            <mxPoint x="1348" y="460" as="targetPoint" />
          </mxGeometry>
        </mxCell>
        <mxCell id="5eiVQQ08Vi99bNfQlzm1-7" value="@Component" style="html=1;whiteSpace=wrap;fontSize=20;verticalAlign=middle;align=center;fontStyle=0;fillColor=#ffcc99;strokeColor=#36393d;" parent="1" vertex="1">
          <mxGeometry x="892" y="190" width="290" height="51" as="geometry" />
        </mxCell>
        <mxCell id="5eiVQQ08Vi99bNfQlzm1-8" value="Extends" style="endArrow=block;endSize=16;endFill=0;html=1;rounded=0;exitX=0.5;exitY=0;exitDx=0;exitDy=0;entryX=0.5;entryY=1;entryDx=0;entryDy=0;" parent="1" source="5eiVQQ08Vi99bNfQlzm1-5" target="5eiVQQ08Vi99bNfQlzm1-7" edge="1">
          <mxGeometry width="160" relative="1" as="geometry">
            <mxPoint x="1268" y="330" as="sourcePoint" />
            <mxPoint x="1428" y="330" as="targetPoint" />
          </mxGeometry>
        </mxCell>
        <mxCell id="5eiVQQ08Vi99bNfQlzm1-9" value="@AutoConfigurationPackage" style="html=1;whiteSpace=wrap;fontSize=20;fillColor=#ffe6cc;strokeColor=#d79b00;" parent="1" vertex="1">
          <mxGeometry x="1322.63" y="345" width="286.75" height="50" as="geometry" />
        </mxCell>
        <mxCell id="5eiVQQ08Vi99bNfQlzm1-10" value="@Import(AutoConfigurationImportSelector.class)" style="html=1;whiteSpace=wrap;fontSize=20;verticalAlign=middle;align=center;fontStyle=0;fillColor=#ffcc99;strokeColor=#36393d;" parent="1" vertex="1">
          <mxGeometry x="1740" y="344" width="440" height="51" as="geometry" />
        </mxCell>
        <mxCell id="5eiVQQ08Vi99bNfQlzm1-11" value="Extends" style="endArrow=block;endSize=16;endFill=0;html=1;rounded=0;exitX=0.5;exitY=0;exitDx=0;exitDy=0;entryX=0.5;entryY=1;entryDx=0;entryDy=0;" parent="1" source="5eiVQQ08Vi99bNfQlzm1-1" target="5eiVQQ08Vi99bNfQlzm1-9" edge="1">
          <mxGeometry width="160" relative="1" as="geometry">
            <mxPoint x="1488" y="440" as="sourcePoint" />
            <mxPoint x="1648" y="440" as="targetPoint" />
          </mxGeometry>
        </mxCell>
        <mxCell id="5eiVQQ08Vi99bNfQlzm1-12" value="Extends" style="endArrow=block;endSize=16;endFill=0;html=1;rounded=0;exitX=0.5;exitY=0;exitDx=0;exitDy=0;entryX=0.5;entryY=1;entryDx=0;entryDy=0;" parent="1" source="5eiVQQ08Vi99bNfQlzm1-1" target="5eiVQQ08Vi99bNfQlzm1-10" edge="1">
          <mxGeometry width="160" relative="1" as="geometry">
            <mxPoint x="1518" y="430" as="sourcePoint" />
            <mxPoint x="1678" y="430" as="targetPoint" />
          </mxGeometry>
        </mxCell>
        <mxCell id="5eiVQQ08Vi99bNfQlzm1-13" value="@Import(AutoConfigurationPackages.Registrar.class)" style="html=1;whiteSpace=wrap;fontSize=20;verticalAlign=middle;align=center;fontStyle=0;fillColor=#ffcc99;strokeColor=#36393d;" parent="1" vertex="1">
          <mxGeometry x="1215.75" y="190" width="500.5" height="51" as="geometry" />
        </mxCell>
        <mxCell id="5eiVQQ08Vi99bNfQlzm1-14" value="Extends" style="endArrow=block;endSize=16;endFill=0;html=1;rounded=0;exitX=0.5;exitY=0;exitDx=0;exitDy=0;entryX=0.5;entryY=1;entryDx=0;entryDy=0;" parent="1" source="5eiVQQ08Vi99bNfQlzm1-9" target="5eiVQQ08Vi99bNfQlzm1-13" edge="1">
          <mxGeometry width="160" relative="1" as="geometry">
            <mxPoint x="1458" y="310" as="sourcePoint" />
            <mxPoint x="1618" y="310" as="targetPoint" />
          </mxGeometry>
        </mxCell>
      </root>
    </mxGraphModel>
  </diagram>
</mxfile>
